<?xml version="1.0" encoding="UTF-8" standalone="no"?>
<svg
   xmlns:dc="http://purl.org/dc/elements/1.1/"
   xmlns:cc="http://creativecommons.org/ns#"
   xmlns:rdf="http://www.w3.org/1999/02/22-rdf-syntax-ns#"
   xmlns:svg="http://www.w3.org/2000/svg"
   xmlns="http://www.w3.org/2000/svg"
   xmlns:sodipodi="http://sodipodi.sourceforge.net/DTD/sodipodi-0.dtd"
   xmlns:inkscape="http://www.inkscape.org/namespaces/inkscape"
   width="24in"
   height="12in"
   version="1.1"
   id="svg4373"
   sodipodi:docname="RobotBedAndFrame.svg"
   inkscape:version="0.92.4 (5da689c313, 2019-01-14)">
  <metadata
     id="metadata4377">
    <rdf:RDF>
      <cc:Work
         rdf:about="">
        <dc:format>image/svg+xml</dc:format>
        <dc:type
           rdf:resource="http://purl.org/dc/dcmitype/StillImage" />
        <dc:title></dc:title>
      </cc:Work>
    </rdf:RDF>
  </metadata>
  <sodipodi:namedview
     pagecolor="#ffffff"
     bordercolor="#666666"
     borderopacity="1"
     objecttolerance="10"
     gridtolerance="10"
     guidetolerance="10"
     inkscape:pageopacity="0"
     inkscape:pageshadow="2"
     inkscape:window-width="1366"
     inkscape:window-height="705"
     id="namedview4375"
     showgrid="true"
     units="in"
     inkscape:snap-bbox="false"
     inkscape:bbox-paths="false"
     inkscape:bbox-nodes="false"
     inkscape:snap-bbox-edge-midpoints="false"
     inkscape:snap-bbox-midpoints="false"
     inkscape:snap-midpoints="true"
     inkscape:snap-page="true"
     inkscape:object-nodes="false"
     inkscape:zoom="0.53061726"
     inkscape:cx="654.35825"
     inkscape:cy="645.04326"
     inkscape:window-x="-8"
     inkscape:window-y="-8"
     inkscape:window-maximized="1"
     inkscape:current-layer="g4371" />
  <desc
     id="desc4045">C:\a\diy\lab equipment\labRobot\RobotBedAndFrame.dxf - scale = 1.000000, origin = (0.000000, 0.000000), method = manual</desc>
  <defs
     id="defs4059">
    <marker
       id="DistanceX"
       orient="auto"
       refX="0"
       refY="0"
       style="overflow:visible">
      <path
         d="M 3,-3 -3,3 M 0,-5 V 5"
         style="stroke:#000000;stroke-width:0.5"
         id="path4047"
         inkscape:connector-curvature="0" />
    </marker>
    <pattern
       height="8"
       id="Hatch"
       patternUnits="userSpaceOnUse"
       width="8"
       x="0"
       y="0">
      <path
         d="M8 4 l-4,4"
         linecap="square"
         stroke="#000000"
         stroke-width="0.25"
         id="path4050" />
      <path
         d="M6 2 l-4,4"
         linecap="square"
         stroke="#000000"
         stroke-width="0.25"
         id="path4052" />
      <path
         d="M4 0 l-4,4"
         linecap="square"
         stroke="#000000"
         stroke-width="0.25"
         id="path4054" />
    </pattern>
    <symbol
       id="*MODEL_SPACE" />
    <symbol
       id="*PAPER_SPACE" />
  </defs>
  <g
     inkscape:groupmode="layer"
     inkscape:label="0"
     id="g4371"
     transform="translate(0,29.480347)">
    <path
       d="M 227.27165,764.72045 H 714.67951"
       style="fill:none;stroke:#000000"
       id="path4061"
       inkscape:connector-curvature="0" />
    <path
       d="M 714.67951,764.72045 V 437.14878"
       style="fill:none;stroke:#000000"
       id="path4063"
       inkscape:connector-curvature="0" />
    <path
       d="M 714.67951,437.14878 H 227.27165"
       style="fill:none;stroke:#000000"
       id="path4065"
       inkscape:connector-curvature="0" />
    <path
       d="m 142.23228,678.92515 a 9.44882,9.44882 0 1 0 -18.89764,0 9.44882,9.44882 0 1 0 18.89764,0 z"
       style="fill:none;stroke:#000000"
       id="path4067"
       inkscape:connector-curvature="0" />
    <path
       d="m 1283.6496,678.92515 a 9.44885,9.44885 0 1 0 -18.8977,0 9.44885,9.44885 0 1 0 18.8977,0 z"
       style="fill:none;stroke:#000000"
       id="path4069"
       inkscape:connector-curvature="0" />
    <path
       d="m 142.23228,170.20075 a 9.44882,9.44882 0 1 0 -18.89764,0 9.44882,9.44882 0 1 0 18.89764,0 z"
       style="fill:none;stroke:#000000"
       id="path4071"
       inkscape:connector-curvature="0" />
    <path
       d="m 1283.6496,170.20075 a 9.44885,9.44885 0 1 0 -18.8977,0 9.44885,9.44885 0 1 0 18.8977,0 z"
       style="fill:none;stroke:#000000"
       id="path4073"
       inkscape:connector-curvature="0" />
    <path
       d="m 211.87328,689.12985 v -37.7952"
       style="fill:none;stroke:#000000"
       id="path4089"
       inkscape:connector-curvature="0" />
    <path
       d="M 728.05901,764.72045 H 1210.9315"
       style="fill:none;stroke:#000000"
       id="path4091"
       inkscape:connector-curvature="0" />
    <path
       d="M 728.05901,441.68422 V 764.72045"
       style="fill:none;stroke:#000000"
       id="path4093"
       inkscape:connector-curvature="0" />
    <path
       d="M 1210.9315,441.68422 H 728.05901"
       style="fill:none;stroke:#000000"
       id="path4095"
       inkscape:connector-curvature="0" />
    <path
       d="M 1210.9315,764.72045 V 441.68422"
       style="fill:none;stroke:#000000"
       id="path4097"
       inkscape:connector-curvature="0" />
    <path
       d="M 227.27165,422.67319 H 710.14411"
       style="fill:none;stroke:#000000"
       id="path4099"
       inkscape:connector-curvature="0" />
    <path
       d="M 710.14411,99.63697 H 227.27165"
       style="fill:none;stroke:#000000"
       id="path4101"
       inkscape:connector-curvature="0" />
    <path
       d="M 710.14411,422.67319 V 99.63697"
       style="fill:none;stroke:#000000"
       id="path4103"
       inkscape:connector-curvature="0" />
    <path
       d="M 728.05901,422.67319 H 1210.9315 V 99.63697 H 728.05901 Z"
       style="fill:none;stroke:#000000"
       id="path4105"
       inkscape:connector-curvature="0" />
    <path
       d="m 626.19134,774.23495 a 6,6 0 1 0 -12,0 6,6 0 1 0 12,0 z"
       style="fill:none;stroke:#000000"
       id="path4107"
       inkscape:connector-curvature="0" />
    <path
       d="m 224.56305,670.23225 a 6,6 0 1 0 -12,0 6,6 0 1 0 12,0 z"
       style="fill:none;stroke:#000000"
       id="path4109"
       inkscape:connector-curvature="0" />
    <path
       d="M 639.08897,795.94835 H 601.2937 v -14.4756 h 37.79527 z"
       style="fill:none;stroke:#000000"
       id="path4117"
       inkscape:connector-curvature="0" />
    <path
       d="m 1139.8763,795.94835 h -37.7952"
       style="fill:none;stroke:#000000"
       id="path4125"
       inkscape:connector-curvature="0" />
    <path
       d="m 1139.8763,781.47275 h -37.7952"
       style="fill:none;stroke:#000000"
       id="path4131"
       inkscape:connector-curvature="0" />
    <path
       d="m 1102.0811,795.94835 v -14.4756"
       style="fill:none;stroke:#000000"
       id="path4135"
       inkscape:connector-curvature="0" />
    <path
       d="m 1139.8763,781.47275 v 14.4756"
       style="fill:none;stroke:#000000"
       id="path4137"
       inkscape:connector-curvature="0" />
    <path
       d="m 1126.9787,774.23495 a 6,6 0 1 0 -12,0 6,6 0 1 0 12,0 z"
       style="fill:none;stroke:#000000"
       id="path4139"
       inkscape:connector-curvature="0" />
    <path
       d="m 621.76377,429.58986 a 6,6 0 1 0 -12,0 6,6 0 1 0 12,0 z"
       style="fill:none;stroke:#000000"
       id="path4157"
       inkscape:connector-curvature="0" />
    <path
       d="m 1135.3409,441.68422 h -37.7953"
       style="fill:none;stroke:#000000"
       id="path4165"
       inkscape:connector-curvature="0" />
    <path
       d="m 1122.4433,432.1787 a 6,6 0 1 0 -12,0 6,6 0 1 0 12,0 z"
       style="fill:none;stroke:#000000"
       id="path4173"
       inkscape:connector-curvature="0" />
    <path
       d="m 596.75826,61.61492 h 37.79528 v 19.01103 h -37.79528 z"
       style="fill:none;stroke:#000000"
       id="path4179"
       inkscape:connector-curvature="0" />
    <path
       d="M 634.55354,99.63697 H 596.75826"
       style="fill:none;stroke:#000000"
       id="path4183"
       inkscape:connector-curvature="0" />
    <path
       d="m 621.6559,90.13146 a 6,6 0 1 0 -12,0 6,6 0 1 0 12,0 z"
       style="fill:none;stroke:#000000"
       id="path4191"
       inkscape:connector-curvature="0" />
    <path
       d="m 1097.5456,61.61492 h 37.7953 v 19.01103 h -37.7953 z"
       style="fill:none;stroke:#000000"
       id="path4197"
       inkscape:connector-curvature="0" />
    <path
       d="m 1135.3409,99.63697 h -37.7953"
       style="fill:none;stroke:#000000"
       id="path4201"
       inkscape:connector-curvature="0" />
    <path
       d="m 1122.4433,90.13146 a 6,6 0 1 0 -12,0 6,6 0 1 0 12,0 z"
       style="fill:none;stroke:#000000"
       id="path4209"
       inkscape:connector-curvature="0" />
    <path
       d="M 211.87328,689.12985 H 198.49375"
       style="fill:none;stroke:#000000"
       id="path4223"
       inkscape:connector-curvature="0" />
    <path
       d="m 198.49375,689.12985 v -37.7952"
       style="fill:none;stroke:#000000"
       id="path4225"
       inkscape:connector-curvature="0" />
    <path
       d="m 198.49375,651.33465 h 13.37953"
       style="fill:none;stroke:#000000"
       id="path4227"
       inkscape:connector-curvature="0" />
    <path
       d="m 211.87328,651.33465 v 37.7952"
       style="fill:none;stroke:#000000"
       id="path4229"
       inkscape:connector-curvature="0" />
    <path
       d="m 728.05901,689.12985 v -37.7952"
       style="fill:none;stroke:#000000"
       id="path4239"
       inkscape:connector-curvature="0" />
    <path
       d="m 728.05901,651.33465 v 37.7952"
       style="fill:none;stroke:#000000"
       id="path4255"
       inkscape:connector-curvature="0" />
    <path
       d="m 727.26491,670.5928 a 6,6 0 1 0 -12,0 6,6 0 1 0 12,0 z"
       style="fill:none;stroke:#000000"
       id="path4257"
       inkscape:connector-curvature="0" />
    <path
       d="m 1246.7614,651.33465 v 37.7952"
       style="fill:none;stroke:#000000"
       id="path4261"
       inkscape:connector-curvature="0" />
    <path
       d="m 1228.8464,689.12985 v -37.7952"
       style="fill:none;stroke:#000000"
       id="path4265"
       inkscape:connector-curvature="0" />
    <path
       d="m 1246.7614,689.12985 h -17.915"
       style="fill:none;stroke:#000000"
       id="path4267"
       inkscape:connector-curvature="0" />
    <path
       d="m 1228.8464,651.33465 h 17.915"
       style="fill:none;stroke:#000000"
       id="path4269"
       inkscape:connector-curvature="0" />
    <path
       d="m 1228.8464,651.33465 v 37.7952"
       style="fill:none;stroke:#000000"
       id="path4277"
       inkscape:connector-curvature="0" />
    <path
       d="m 1225.8889,670.23225 a 6,6 0 1 0 -12,0 6,6 0 1 0 12,0 z"
       style="fill:none;stroke:#000000"
       id="path4279"
       inkscape:connector-curvature="0" />
    <path
       d="m 198.49375,309.28736 h 13.37953"
       style="fill:none;stroke:#000000"
       id="path4281"
       inkscape:connector-curvature="0" />
    <path
       d="M 211.87328,347.08264 H 198.49375"
       style="fill:none;stroke:#000000"
       id="path4285"
       inkscape:connector-curvature="0" />
    <path
       d="m 211.87328,309.28736 v 37.79528"
       style="fill:none;stroke:#000000"
       id="path4293"
       inkscape:connector-curvature="0" />
    <path
       d="M 211.87328,347.08264 V 309.28736"
       style="fill:none;stroke:#000000"
       id="path4295"
       inkscape:connector-curvature="0" />
    <path
       d="M 198.49375,347.08264 V 309.28736"
       style="fill:none;stroke:#000000"
       id="path4297"
       inkscape:connector-curvature="0" />
    <path
       d="m 224.56305,328.185 a 6,6 0 1 0 -12,0 6,6 0 1 0 12,0 z"
       style="fill:none;stroke:#000000"
       id="path4305"
       inkscape:connector-curvature="0" />
    <path
       d="M 728.05901,347.08264 V 309.28736"
       style="fill:none;stroke:#000000"
       id="path4313"
       inkscape:connector-curvature="0" />
    <path
       d="m 710.14411,309.28736 v 37.79528"
       style="fill:none;stroke:#000000"
       id="path4319"
       inkscape:connector-curvature="0" />
    <path
       d="M 710.14411,347.08264 V 309.28736"
       style="fill:none;stroke:#000000"
       id="path4321"
       inkscape:connector-curvature="0" />
    <path
       d="m 728.05901,309.28736 v 37.79528"
       style="fill:none;stroke:#000000"
       id="path4329"
       inkscape:connector-curvature="0" />
    <path
       d="m 725.10161,328.185 a 6,6 0 1 0 -12,0 6,6 0 1 0 12,0 z"
       style="fill:none;stroke:#000000"
       id="path4331"
       inkscape:connector-curvature="0" />
    <path
       d="m 1246.7614,309.28736 v 37.79528"
       style="fill:none;stroke:#000000"
       id="path4337"
       inkscape:connector-curvature="0" />
    <path
       d="M 1228.8464,347.08264 V 309.28736"
       style="fill:none;stroke:#000000"
       id="path4341"
       inkscape:connector-curvature="0" />
    <path
       d="m 1246.7614,347.08264 h -17.915"
       style="fill:none;stroke:#000000"
       id="path4343"
       inkscape:connector-curvature="0" />
    <path
       d="m 1228.8464,309.28736 h 17.915"
       style="fill:none;stroke:#000000"
       id="path4345"
       inkscape:connector-curvature="0" />
    <path
       d="m 1210.9315,309.28736 v 37.79528"
       style="fill:none;stroke:#000000"
       id="path4347"
       inkscape:connector-curvature="0" />
    <path
       d="M 1210.9315,347.08264 V 309.28736"
       style="fill:none;stroke:#000000"
       id="path4349"
       inkscape:connector-curvature="0" />
    <path
       d="m 1228.8464,309.28736 v 37.79528"
       style="fill:none;stroke:#000000"
       id="path4357"
       inkscape:connector-curvature="0" />
    <path
       d="m 1225.8889,328.185 a 6,6 0 1 0 -12,0 6,6 0 1 0 12,0 z"
       style="fill:none;stroke:#000000"
       id="path4359"
       inkscape:connector-curvature="0" />
    <path
       d="m 1273.8743,432.1787 a 9.448819,9.448819 0 1 0 -18.8976,0 9.448819,9.448819 0 1 0 18.8976,0 z"
       style="fill:none;stroke:#000000"
       id="path4361"
       inkscape:connector-curvature="0" />
    <path
       d="M 227.27165,764.72045 V 437.14878"
       style="fill:none;stroke:#000000"
       id="path4363"
       inkscape:connector-curvature="0" />
    <path
       d="M 227.27165,422.67319 V 99.63697"
       style="fill:none;stroke:#000000"
       id="path4365"
       inkscape:connector-curvature="0" />
    <path
       d="m 1210.9315,651.33465 v 37.7952"
       style="fill:none;stroke:#000000"
       id="path4367"
       inkscape:connector-curvature="0" />
    <path
       d="M 0.5,-28.980347 H 1308.2165 V 983.93314 H 0.5 Z"
       style="fill:none;stroke:#000000"
       id="path4369"
       inkscape:connector-curvature="0" />
  </g>
</svg>
