  0
SECTION
  2
HEADER
  9
$ACADVER
  1
AC1014
  9
$HANDSEED
  5
FFFF
  9
$MEASUREMENT
 70
     1
  0
ENDSEC
  0
SECTION
  2
TABLES
  0
TABLE
  2
VPORT
  5
8
330
0
100
AcDbSymbolTable
 70
     4
  0
VPORT
  5
2E
330
8
100
AcDbSymbolTableRecord
100
AcDbViewportTableRecord
  2
*ACTIVE
 70
     0
 10
0.0
 20
0.0
 11
1.0
 21
1.0
 12
210.0
 22
148.5
 13
0.0
 23
0.0
 14
10.0
 24
10.0
 15
10.0
 25
10.0
 16
0.0
 26
0.0
 36
1.0
 17
0.0
 27
0.0
 37
0.0
 40
341.0
 41
1.24
 42
50.0
 43
0.0
 44
0.0
 50
0.0
 51
0.0
 71
     0
 72
   100
 73
     1
 74
     3
 75
     0
 76
     0
 77
     0
 78
     0
  0
ENDTAB
  0
TABLE
  2
LTYPE
  5
5
330
0
100
AcDbSymbolTable
 70
     1
  0
LTYPE
  5
14
330
5
100
AcDbSymbolTableRecord
100
AcDbLinetypeTableRecord
  2
BYBLOCK
 70
     0
  3

 72
    65
 73
     0
 40
0.0
  0
LTYPE
  5
15
330
5
100
AcDbSymbolTableRecord
100
AcDbLinetypeTableRecord
  2
BYLAYER
 70
     0
  3

 72
    65
 73
     0
 40
0.0
  0
LTYPE
  5
16
330
5
100
AcDbSymbolTableRecord
100
AcDbLinetypeTableRecord
  2
CONTINUOUS
 70
     0
  3
Solid line
 72
    65
 73
     0
 40
0.0
  0
ENDTAB
  0
TABLE
  2
LAYER
  5
2
100
AcDbSymbolTable
 70
1
  0
LAYER
  5
50
100
AcDbSymbolTableRecord
100
AcDbLayerTableRecord
  2
0
 70
0
  6
CONTINUOUS
  0
ENDTAB
  0
TABLE
  2
STYLE
  5
3
330
0
100
AcDbSymbolTable
 70
     1
  0
STYLE
  5
11
330
3
100
AcDbSymbolTableRecord
100
AcDbTextStyleTableRecord
  2
STANDARD
 70
     0
 40
0.0
 41
1.0
 50
0.0
 71
     0
 42
2.5
  3
txt
  4

  0
ENDTAB
  0
TABLE
  2
VIEW
  5
6
330
0
100
AcDbSymbolTable
 70
     0
  0
ENDTAB
  0
TABLE
  2
UCS
  5
7
330
0
100
AcDbSymbolTable
 70
     0
  0
ENDTAB
  0
TABLE
  2
APPID
  5
9
330
0
100
AcDbSymbolTable
 70
     2
  0
APPID
  5
12
330
9
100
AcDbSymbolTableRecord
100
AcDbRegAppTableRecord
  2
ACAD
 70
     0
  0
ENDTAB
  0
TABLE
  2
DIMSTYLE
  5
A
330
0
100
AcDbSymbolTable
 70
     1
  0
DIMSTYLE
105
27
330
A
100
AcDbSymbolTableRecord
100
AcDbDimStyleTableRecord
  2
ISO-25
 70
     0
  3

  4

  5

  6

  7

 40
1.0
 41
2.5
 42
0.625
 43
3.75
 44
1.25
 45
0.0
 46
0.0
 47
0.0
 48
0.0
140
2.5
141
2.5
142
0.0
143
0.03937007874016
144
1.0
145
0.0
146
1.0
147
0.625
 71
     0
 72
     0
 73
     0
 74
     0
 75
     0
 76
     0
 77
     1
 78
     8
170
     0
171
     3
172
     1
173
     0
174
     0
175
     0
176
     0
177
     0
178
     0
270
     2
271
     2
272
     2
273
     2
274
     3
340
11
275
     0
280
     0
281
     0
282
     0
283
     0
284
     8
285
     0
286
     0
287
     3
288
     0
  0
ENDTAB
  0
TABLE
  2
BLOCK_RECORD
  5
1
330
0
100
AcDbSymbolTable
 70
     1
  0
BLOCK_RECORD
  5
1F
330
1
100
AcDbSymbolTableRecord
100
AcDbBlockTableRecord
  2
*MODEL_SPACE
  0
BLOCK_RECORD
  5
1B
330
1
100
AcDbSymbolTableRecord
100
AcDbBlockTableRecord
  2
*PAPER_SPACE
  0
ENDTAB
  0
ENDSEC
  0
SECTION
  2
BLOCKS
  0
BLOCK
  5
20
330
1F
100
AcDbEntity
  8
0
100
AcDbBlockBegin
  2
*MODEL_SPACE
 70
     0
 10
0.0
 20
0.0
 30
0.0
  3
*MODEL_SPACE
  1

  0
ENDBLK
  5
21
330
1F
100
AcDbEntity
  8
0
100
AcDbBlockEnd
  0
BLOCK
  5
1C
330
1B
100
AcDbEntity
 67
     1
  8
0
100
AcDbBlockBegin
  2
*PAPER_SPACE
  1

  0
ENDBLK
  5
1D
330
1B
100
AcDbEntity
 67
     1
  8
0
100
AcDbBlockEnd
  0
ENDSEC
  0
SECTION
  2
ENTITIES
  0
SPLINE
  5
100
100
AcDbEntity
  8
0
 62
7
100
AcDbSpline
 70
8
 71
3
 72
8
 73
4
 74
0
 40
0
 40
0
 40
0
 40
0
 40
1
 40
1
 40
1
 40
1
 10
106.674210
 20
332.695877
 30
0.0
 10
106.674210
 20
335.227681
 30
0.0
 10
105.323509
 20
337.567164
 30
0.0
 10
103.130902
 20
338.833066
 30
0.0
  0
SPLINE
  5
101
100
AcDbEntity
  8
0
 62
7
100
AcDbSpline
 70
8
 71
3
 72
8
 73
4
 74
0
 40
0
 40
0
 40
0
 40
0
 40
1
 40
1
 40
1
 40
1
 10
103.130902
 20
338.833066
 30
0.0
 10
100.938296
 20
340.098968
 30
0.0
 10
98.236894
 20
340.098968
 30
0.0
 10
96.044288
 20
338.833066
 30
0.0
  0
SPLINE
  5
102
100
AcDbEntity
  8
0
 62
7
100
AcDbSpline
 70
8
 71
3
 72
8
 73
4
 74
0
 40
0
 40
0
 40
0
 40
0
 40
1
 40
1
 40
1
 40
1
 10
96.044288
 20
338.833066
 30
0.0
 10
93.851681
 20
337.567164
 30
0.0
 10
92.500980
 20
335.227681
 30
0.0
 10
92.500980
 20
332.695877
 30
0.0
  0
SPLINE
  5
103
100
AcDbEntity
  8
0
 62
7
100
AcDbSpline
 70
8
 71
3
 72
8
 73
4
 74
0
 40
0
 40
0
 40
0
 40
0
 40
1
 40
1
 40
1
 40
1
 10
92.500980
 20
332.695877
 30
0.0
 10
92.500980
 20
330.164074
 30
0.0
 10
93.851681
 20
327.824590
 30
0.0
 10
96.044288
 20
326.558689
 30
0.0
  0
SPLINE
  5
104
100
AcDbEntity
  8
0
 62
7
100
AcDbSpline
 70
8
 71
3
 72
8
 73
4
 74
0
 40
0
 40
0
 40
0
 40
0
 40
1
 40
1
 40
1
 40
1
 10
96.044288
 20
326.558689
 30
0.0
 10
98.236894
 20
325.292787
 30
0.0
 10
100.938296
 20
325.292787
 30
0.0
 10
103.130902
 20
326.558689
 30
0.0
  0
SPLINE
  5
105
100
AcDbEntity
  8
0
 62
7
100
AcDbSpline
 70
8
 71
3
 72
8
 73
4
 74
0
 40
0
 40
0
 40
0
 40
0
 40
1
 40
1
 40
1
 40
1
 10
103.130902
 20
326.558689
 30
0.0
 10
105.323509
 20
327.824590
 30
0.0
 10
106.674210
 20
330.164074
 30
0.0
 10
106.674210
 20
332.695877
 30
0.0
  0
LWPOLYLINE
  5
106
100
AcDbEntity
  8
0
 62
7
100
AcDbPolyline
 90
4
 70
0
 10
170.453737
 20
268.349402
 30
0.0
 10
536.009633
 20
268.349402
 30
0.0
 10
536.009633
 20
514.028155
 30
0.0
 10
170.453737
 20
514.028155
 30
0.0
  0
SPLINE
  5
107
100
AcDbEntity
  8
0
 62
7
100
AcDbSpline
 70
8
 71
3
 72
8
 73
4
 74
0
 40
0
 40
0
 40
0
 40
0
 40
1
 40
1
 40
1
 40
1
 10
962.737200
 20
332.695877
 30
0.0
 10
962.737200
 20
335.227689
 30
0.0
 10
961.386495
 20
337.567179
 30
0.0
 10
959.193881
 20
338.833085
 30
0.0
  0
SPLINE
  5
108
100
AcDbEntity
  8
0
 62
7
100
AcDbSpline
 70
8
 71
3
 72
8
 73
4
 74
0
 40
0
 40
0
 40
0
 40
0
 40
1
 40
1
 40
1
 40
1
 10
959.193881
 20
338.833085
 30
0.0
 10
957.001268
 20
340.098991
 30
0.0
 10
954.299857
 20
340.098991
 30
0.0
 10
952.107244
 20
338.833085
 30
0.0
  0
SPLINE
  5
109
100
AcDbEntity
  8
0
 62
7
100
AcDbSpline
 70
8
 71
3
 72
8
 73
4
 74
0
 40
0
 40
0
 40
0
 40
0
 40
1
 40
1
 40
1
 40
1
 10
952.107244
 20
338.833085
 30
0.0
 10
949.914630
 20
337.567179
 30
0.0
 10
948.563925
 20
335.227689
 30
0.0
 10
948.563925
 20
332.695877
 30
0.0
  0
SPLINE
  5
10a
100
AcDbEntity
  8
0
 62
7
100
AcDbSpline
 70
8
 71
3
 72
8
 73
4
 74
0
 40
0
 40
0
 40
0
 40
0
 40
1
 40
1
 40
1
 40
1
 10
948.563925
 20
332.695877
 30
0.0
 10
948.563925
 20
330.164066
 30
0.0
 10
949.914630
 20
327.824575
 30
0.0
 10
952.107244
 20
326.558669
 30
0.0
  0
SPLINE
  5
10b
100
AcDbEntity
  8
0
 62
7
100
AcDbSpline
 70
8
 71
3
 72
8
 73
4
 74
0
 40
0
 40
0
 40
0
 40
0
 40
1
 40
1
 40
1
 40
1
 10
952.107244
 20
326.558669
 30
0.0
 10
954.299857
 20
325.292763
 30
0.0
 10
957.001268
 20
325.292763
 30
0.0
 10
959.193881
 20
326.558669
 30
0.0
  0
SPLINE
  5
10c
100
AcDbEntity
  8
0
 62
7
100
AcDbSpline
 70
8
 71
3
 72
8
 73
4
 74
0
 40
0
 40
0
 40
0
 40
0
 40
1
 40
1
 40
1
 40
1
 10
959.193881
 20
326.558669
 30
0.0
 10
961.386495
 20
327.824575
 30
0.0
 10
962.737200
 20
330.164066
 30
0.0
 10
962.737200
 20
332.695877
 30
0.0
  0
LWPOLYLINE
  5
10d
100
AcDbEntity
  8
0
 62
7
100
AcDbPolyline
 90
1
 70
1
 10
106.674210
 20
332.695877
 30
0.0
  0
SPLINE
  5
10e
100
AcDbEntity
  8
0
 62
7
100
AcDbSpline
 70
8
 71
3
 72
8
 73
4
 74
0
 40
0
 40
0
 40
0
 40
0
 40
1
 40
1
 40
1
 40
1
 10
106.674210
 20
714.239177
 30
0.0
 10
106.674210
 20
716.770981
 30
0.0
 10
105.323509
 20
719.110464
 30
0.0
 10
103.130902
 20
720.376366
 30
0.0
  0
SPLINE
  5
10f
100
AcDbEntity
  8
0
 62
7
100
AcDbSpline
 70
8
 71
3
 72
8
 73
4
 74
0
 40
0
 40
0
 40
0
 40
0
 40
1
 40
1
 40
1
 40
1
 10
103.130902
 20
720.376366
 30
0.0
 10
100.938296
 20
721.642268
 30
0.0
 10
98.236894
 20
721.642268
 30
0.0
 10
96.044288
 20
720.376366
 30
0.0
  0
SPLINE
  5
110
100
AcDbEntity
  8
0
 62
7
100
AcDbSpline
 70
8
 71
3
 72
8
 73
4
 74
0
 40
0
 40
0
 40
0
 40
0
 40
1
 40
1
 40
1
 40
1
 10
96.044288
 20
720.376366
 30
0.0
 10
93.851681
 20
719.110464
 30
0.0
 10
92.500980
 20
716.770981
 30
0.0
 10
92.500980
 20
714.239177
 30
0.0
  0
SPLINE
  5
111
100
AcDbEntity
  8
0
 62
7
100
AcDbSpline
 70
8
 71
3
 72
8
 73
4
 74
0
 40
0
 40
0
 40
0
 40
0
 40
1
 40
1
 40
1
 40
1
 10
92.500980
 20
714.239177
 30
0.0
 10
92.500980
 20
711.707374
 30
0.0
 10
93.851681
 20
709.367890
 30
0.0
 10
96.044288
 20
708.101989
 30
0.0
  0
SPLINE
  5
112
100
AcDbEntity
  8
0
 62
7
100
AcDbSpline
 70
8
 71
3
 72
8
 73
4
 74
0
 40
0
 40
0
 40
0
 40
0
 40
1
 40
1
 40
1
 40
1
 10
96.044288
 20
708.101989
 30
0.0
 10
98.236894
 20
706.836087
 30
0.0
 10
100.938296
 20
706.836087
 30
0.0
 10
103.130902
 20
708.101989
 30
0.0
  0
SPLINE
  5
113
100
AcDbEntity
  8
0
 62
7
100
AcDbSpline
 70
8
 71
3
 72
8
 73
4
 74
0
 40
0
 40
0
 40
0
 40
0
 40
1
 40
1
 40
1
 40
1
 10
103.130902
 20
708.101989
 30
0.0
 10
105.323509
 20
709.367890
 30
0.0
 10
106.674210
 20
711.707374
 30
0.0
 10
106.674210
 20
714.239177
 30
0.0
  0
LWPOLYLINE
  5
114
100
AcDbEntity
  8
0
 62
7
100
AcDbPolyline
 90
1
 70
1
 10
962.737200
 20
332.695877
 30
0.0
  0
SPLINE
  5
115
100
AcDbEntity
  8
0
 62
7
100
AcDbSpline
 70
8
 71
3
 72
8
 73
4
 74
0
 40
0
 40
0
 40
0
 40
0
 40
1
 40
1
 40
1
 40
1
 10
962.737200
 20
714.239177
 30
0.0
 10
962.737200
 20
716.770989
 30
0.0
 10
961.386495
 20
719.110479
 30
0.0
 10
959.193881
 20
720.376385
 30
0.0
  0
SPLINE
  5
116
100
AcDbEntity
  8
0
 62
7
100
AcDbSpline
 70
8
 71
3
 72
8
 73
4
 74
0
 40
0
 40
0
 40
0
 40
0
 40
1
 40
1
 40
1
 40
1
 10
959.193881
 20
720.376385
 30
0.0
 10
957.001268
 20
721.642291
 30
0.0
 10
954.299857
 20
721.642291
 30
0.0
 10
952.107244
 20
720.376385
 30
0.0
  0
SPLINE
  5
117
100
AcDbEntity
  8
0
 62
7
100
AcDbSpline
 70
8
 71
3
 72
8
 73
4
 74
0
 40
0
 40
0
 40
0
 40
0
 40
1
 40
1
 40
1
 40
1
 10
952.107244
 20
720.376385
 30
0.0
 10
949.914630
 20
719.110479
 30
0.0
 10
948.563925
 20
716.770989
 30
0.0
 10
948.563925
 20
714.239177
 30
0.0
  0
SPLINE
  5
118
100
AcDbEntity
  8
0
 62
7
100
AcDbSpline
 70
8
 71
3
 72
8
 73
4
 74
0
 40
0
 40
0
 40
0
 40
0
 40
1
 40
1
 40
1
 40
1
 10
948.563925
 20
714.239177
 30
0.0
 10
948.563925
 20
711.707366
 30
0.0
 10
949.914630
 20
709.367875
 30
0.0
 10
952.107244
 20
708.101969
 30
0.0
  0
SPLINE
  5
119
100
AcDbEntity
  8
0
 62
7
100
AcDbSpline
 70
8
 71
3
 72
8
 73
4
 74
0
 40
0
 40
0
 40
0
 40
0
 40
1
 40
1
 40
1
 40
1
 10
952.107244
 20
708.101969
 30
0.0
 10
954.299857
 20
706.836063
 30
0.0
 10
957.001268
 20
706.836063
 30
0.0
 10
959.193881
 20
708.101969
 30
0.0
  0
SPLINE
  5
11a
100
AcDbEntity
  8
0
 62
7
100
AcDbSpline
 70
8
 71
3
 72
8
 73
4
 74
0
 40
0
 40
0
 40
0
 40
0
 40
1
 40
1
 40
1
 40
1
 10
959.193881
 20
708.101969
 30
0.0
 10
961.386495
 20
709.367875
 30
0.0
 10
962.737200
 20
711.707366
 30
0.0
 10
962.737200
 20
714.239177
 30
0.0
  0
LWPOLYLINE
  5
11b
100
AcDbEntity
  8
0
 62
7
100
AcDbPolyline
 90
1
 70
1
 10
106.674210
 20
714.239177
 30
0.0
  0
LWPOLYLINE
  5
11c
100
AcDbEntity
  8
0
 62
7
100
AcDbPolyline
 90
1
 70
1
 10
962.737200
 20
714.239177
 30
0.0
  0
LWPOLYLINE
  5
11d
100
AcDbEntity
  8
0
 62
7
100
AcDbPolyline
 90
2
 70
0
 10
158.904960
 20
325.042352
 30
0.0
 10
158.904960
 20
353.388752
 30
0.0
  0
LWPOLYLINE
  5
11e
100
AcDbEntity
  8
0
 62
7
100
AcDbPolyline
 90
2
 70
0
 10
546.044257
 20
268.349402
 30
0.0
 10
908.198625
 20
268.349402
 30
0.0
  0
LWPOLYLINE
  5
11f
100
AcDbEntity
  8
0
 62
7
100
AcDbPolyline
 90
2
 70
0
 10
546.044257
 20
510.626575
 30
0.0
 10
546.044257
 20
268.349402
 30
0.0
  0
LWPOLYLINE
  5
120
100
AcDbEntity
  8
0
 62
7
100
AcDbPolyline
 90
2
 70
0
 10
908.198625
 20
510.626575
 30
0.0
 10
546.044257
 20
510.626575
 30
0.0
  0
LWPOLYLINE
  5
121
100
AcDbEntity
  8
0
 62
7
100
AcDbPolyline
 90
2
 70
0
 10
908.198625
 20
268.349402
 30
0.0
 10
908.198625
 20
510.626575
 30
0.0
  0
LWPOLYLINE
  5
122
100
AcDbEntity
  8
0
 62
7
100
AcDbPolyline
 90
2
 70
0
 10
170.453737
 20
524.884847
 30
0.0
 10
532.608082
 20
524.884847
 30
0.0
  0
LWPOLYLINE
  5
123
100
AcDbEntity
  8
0
 62
7
100
AcDbPolyline
 90
2
 70
0
 10
532.608082
 20
767.162012
 30
0.0
 10
170.453737
 20
767.162012
 30
0.0
  0
LWPOLYLINE
  5
124
100
AcDbEntity
  8
0
 62
7
100
AcDbPolyline
 90
2
 70
0
 10
532.608082
 20
524.884847
 30
0.0
 10
532.608082
 20
767.162012
 30
0.0
  0
SPLINE
  5
125
100
AcDbEntity
  8
0
 62
7
100
AcDbSpline
 70
8
 71
3
 72
8
 73
4
 74
0
 40
0
 40
0
 40
0
 40
0
 40
1
 40
1
 40
1
 40
1
 10
469.643505
 20
261.213527
 30
0.0
 10
469.643505
 20
262.821222
 30
0.0
 10
468.785810
 20
264.306794
 30
0.0
 10
467.393505
 20
265.110642
 30
0.0
  0
SPLINE
  5
126
100
AcDbEntity
  8
0
 62
7
100
AcDbSpline
 70
8
 71
3
 72
8
 73
4
 74
0
 40
0
 40
0
 40
0
 40
0
 40
1
 40
1
 40
1
 40
1
 10
467.393505
 20
265.110642
 30
0.0
 10
466.001200
 20
265.914489
 30
0.0
 10
464.285810
 20
265.914489
 30
0.0
 10
462.893505
 20
265.110642
 30
0.0
  0
SPLINE
  5
127
100
AcDbEntity
  8
0
 62
7
100
AcDbSpline
 70
8
 71
3
 72
8
 73
4
 74
0
 40
0
 40
0
 40
0
 40
0
 40
1
 40
1
 40
1
 40
1
 10
462.893505
 20
265.110642
 30
0.0
 10
461.501200
 20
264.306794
 30
0.0
 10
460.643505
 20
262.821222
 30
0.0
 10
460.643505
 20
261.213527
 30
0.0
  0
SPLINE
  5
128
100
AcDbEntity
  8
0
 62
7
100
AcDbSpline
 70
8
 71
3
 72
8
 73
4
 74
0
 40
0
 40
0
 40
0
 40
0
 40
1
 40
1
 40
1
 40
1
 10
460.643505
 20
261.213527
 30
0.0
 10
460.643505
 20
259.605832
 30
0.0
 10
461.501200
 20
258.120261
 30
0.0
 10
462.893505
 20
257.316413
 30
0.0
  0
SPLINE
  5
129
100
AcDbEntity
  8
0
 62
7
100
AcDbSpline
 70
8
 71
3
 72
8
 73
4
 74
0
 40
0
 40
0
 40
0
 40
0
 40
1
 40
1
 40
1
 40
1
 10
462.893505
 20
257.316413
 30
0.0
 10
464.285810
 20
256.512565
 30
0.0
 10
466.001200
 20
256.512565
 30
0.0
 10
467.393505
 20
257.316413
 30
0.0
  0
SPLINE
  5
12a
100
AcDbEntity
  8
0
 62
7
100
AcDbSpline
 70
8
 71
3
 72
8
 73
4
 74
0
 40
0
 40
0
 40
0
 40
0
 40
1
 40
1
 40
1
 40
1
 10
467.393505
 20
257.316413
 30
0.0
 10
468.785810
 20
258.120261
 30
0.0
 10
469.643505
 20
259.605832
 30
0.0
 10
469.643505
 20
261.213527
 30
0.0
  0
LWPOLYLINE
  5
12b
100
AcDbEntity
  8
0
 62
7
100
AcDbPolyline
 90
4
 70
1
 10
546.044257
 20
524.884847
 30
0.0
 10
908.198625
 20
524.884847
 30
0.0
 10
908.198625
 20
767.162012
 30
0.0
 10
546.044257
 20
767.162012
 30
0.0
  0
SPLINE
  5
12c
100
AcDbEntity
  8
0
 62
7
100
AcDbSpline
 70
8
 71
3
 72
8
 73
4
 74
0
 40
0
 40
0
 40
0
 40
0
 40
1
 40
1
 40
1
 40
1
 10
168.422287
 20
339.215552
 30
0.0
 10
168.422287
 20
340.823247
 30
0.0
 10
167.564592
 20
342.308819
 30
0.0
 10
166.172287
 20
343.112667
 30
0.0
  0
SPLINE
  5
12d
100
AcDbEntity
  8
0
 62
7
100
AcDbSpline
 70
8
 71
3
 72
8
 73
4
 74
0
 40
0
 40
0
 40
0
 40
0
 40
1
 40
1
 40
1
 40
1
 10
166.172287
 20
343.112667
 30
0.0
 10
164.779983
 20
343.916514
 30
0.0
 10
163.064592
 20
343.916514
 30
0.0
 10
161.672287
 20
343.112667
 30
0.0
  0
SPLINE
  5
12e
100
AcDbEntity
  8
0
 62
7
100
AcDbSpline
 70
8
 71
3
 72
8
 73
4
 74
0
 40
0
 40
0
 40
0
 40
0
 40
1
 40
1
 40
1
 40
1
 10
161.672287
 20
343.112667
 30
0.0
 10
160.279983
 20
342.308819
 30
0.0
 10
159.422287
 20
340.823247
 30
0.0
 10
159.422287
 20
339.215552
 30
0.0
  0
SPLINE
  5
12f
100
AcDbEntity
  8
0
 62
7
100
AcDbSpline
 70
8
 71
3
 72
8
 73
4
 74
0
 40
0
 40
0
 40
0
 40
0
 40
1
 40
1
 40
1
 40
1
 10
159.422287
 20
339.215552
 30
0.0
 10
159.422287
 20
337.607857
 30
0.0
 10
160.279983
 20
336.122286
 30
0.0
 10
161.672287
 20
335.318438
 30
0.0
  0
SPLINE
  5
130
100
AcDbEntity
  8
0
 62
7
100
AcDbSpline
 70
8
 71
3
 72
8
 73
4
 74
0
 40
0
 40
0
 40
0
 40
0
 40
1
 40
1
 40
1
 40
1
 10
161.672287
 20
335.318438
 30
0.0
 10
163.064592
 20
334.514590
 30
0.0
 10
164.779983
 20
334.514590
 30
0.0
 10
166.172287
 20
335.318438
 30
0.0
  0
SPLINE
  5
131
100
AcDbEntity
  8
0
 62
7
100
AcDbSpline
 70
8
 71
3
 72
8
 73
4
 74
0
 40
0
 40
0
 40
0
 40
0
 40
1
 40
1
 40
1
 40
1
 10
166.172287
 20
335.318438
 30
0.0
 10
167.564592
 20
336.122286
 30
0.0
 10
168.422287
 20
337.607857
 30
0.0
 10
168.422287
 20
339.215552
 30
0.0
  0
LWPOLYLINE
  5
132
100
AcDbEntity
  8
0
 62
7
100
AcDbPolyline
 90
1
 70
1
 10
469.643505
 20
261.213527
 30
0.0
  0
LWPOLYLINE
  5
133
100
AcDbEntity
  8
0
 62
7
100
AcDbPolyline
 90
1
 70
1
 10
168.422287
 20
339.215552
 30
0.0
  0
LWPOLYLINE
  5
134
100
AcDbEntity
  8
0
 62
7
100
AcDbPolyline
 90
4
 70
1
 10
479.316728
 20
244.928477
 30
0.0
 10
450.970275
 20
244.928477
 30
0.0
 10
450.970275
 20
255.785177
 30
0.0
 10
479.316727
 20
255.785177
 30
0.0
  0
LWPOLYLINE
  5
135
100
AcDbEntity
  8
0
 62
7
100
AcDbPolyline
 90
2
 70
0
 10
854.907225
 20
244.928477
 30
0.0
 10
826.560825
 20
244.928477
 30
0.0
  0
LWPOLYLINE
  5
136
100
AcDbEntity
  8
0
 62
7
100
AcDbPolyline
 90
2
 70
0
 10
854.907225
 20
255.785177
 30
0.0
 10
826.560825
 20
255.785177
 30
0.0
  0
LWPOLYLINE
  5
137
100
AcDbEntity
  8
0
 62
7
100
AcDbPolyline
 90
2
 70
0
 10
826.560825
 20
244.928477
 30
0.0
 10
826.560825
 20
255.785177
 30
0.0
  0
SPLINE
  5
138
100
AcDbEntity
  8
0
 62
7
100
AcDbSpline
 70
8
 71
3
 72
8
 73
4
 74
0
 40
0
 40
0
 40
0
 40
0
 40
1
 40
1
 40
1
 40
1
 10
845.234025
 20
261.213527
 30
0.0
 10
845.234025
 20
262.821222
 30
0.0
 10
844.376330
 20
264.306794
 30
0.0
 10
842.984025
 20
265.110642
 30
0.0
  0
SPLINE
  5
139
100
AcDbEntity
  8
0
 62
7
100
AcDbSpline
 70
8
 71
3
 72
8
 73
4
 74
0
 40
0
 40
0
 40
0
 40
0
 40
1
 40
1
 40
1
 40
1
 10
842.984025
 20
265.110642
 30
0.0
 10
841.591720
 20
265.914489
 30
0.0
 10
839.876330
 20
265.914489
 30
0.0
 10
838.484025
 20
265.110642
 30
0.0
  0
SPLINE
  5
13a
100
AcDbEntity
  8
0
 62
7
100
AcDbSpline
 70
8
 71
3
 72
8
 73
4
 74
0
 40
0
 40
0
 40
0
 40
0
 40
1
 40
1
 40
1
 40
1
 10
838.484025
 20
265.110642
 30
0.0
 10
837.091720
 20
264.306794
 30
0.0
 10
836.234025
 20
262.821222
 30
0.0
 10
836.234025
 20
261.213527
 30
0.0
  0
SPLINE
  5
13b
100
AcDbEntity
  8
0
 62
7
100
AcDbSpline
 70
8
 71
3
 72
8
 73
4
 74
0
 40
0
 40
0
 40
0
 40
0
 40
1
 40
1
 40
1
 40
1
 10
836.234025
 20
261.213527
 30
0.0
 10
836.234025
 20
259.605832
 30
0.0
 10
837.091720
 20
258.120261
 30
0.0
 10
838.484025
 20
257.316413
 30
0.0
  0
SPLINE
  5
13c
100
AcDbEntity
  8
0
 62
7
100
AcDbSpline
 70
8
 71
3
 72
8
 73
4
 74
0
 40
0
 40
0
 40
0
 40
0
 40
1
 40
1
 40
1
 40
1
 10
838.484025
 20
257.316413
 30
0.0
 10
839.876330
 20
256.512565
 30
0.0
 10
841.591720
 20
256.512565
 30
0.0
 10
842.984025
 20
257.316413
 30
0.0
  0
SPLINE
  5
13d
100
AcDbEntity
  8
0
 62
7
100
AcDbSpline
 70
8
 71
3
 72
8
 73
4
 74
0
 40
0
 40
0
 40
0
 40
0
 40
1
 40
1
 40
1
 40
1
 10
842.984025
 20
257.316413
 30
0.0
 10
844.376330
 20
258.120261
 30
0.0
 10
845.234025
 20
259.605832
 30
0.0
 10
845.234025
 20
261.213527
 30
0.0
  0
LWPOLYLINE
  5
13e
100
AcDbEntity
  8
0
 62
7
100
AcDbPolyline
 90
2
 70
0
 10
854.907225
 20
255.785177
 30
0.0
 10
854.907225
 20
244.928477
 30
0.0
  0
SPLINE
  5
13f
100
AcDbEntity
  8
0
 62
7
100
AcDbSpline
 70
8
 71
3
 72
8
 73
4
 74
0
 40
0
 40
0
 40
0
 40
0
 40
1
 40
1
 40
1
 40
1
 10
466.322828
 20
519.697345
 30
0.0
 10
466.322828
 20
521.305040
 30
0.0
 10
465.465132
 20
522.790611
 30
0.0
 10
464.072828
 20
523.594459
 30
0.0
  0
SPLINE
  5
140
100
AcDbEntity
  8
0
 62
7
100
AcDbSpline
 70
8
 71
3
 72
8
 73
4
 74
0
 40
0
 40
0
 40
0
 40
0
 40
1
 40
1
 40
1
 40
1
 10
464.072828
 20
523.594459
 30
0.0
 10
462.680523
 20
524.398307
 30
0.0
 10
460.965132
 20
524.398307
 30
0.0
 10
459.572828
 20
523.594459
 30
0.0
  0
SPLINE
  5
141
100
AcDbEntity
  8
0
 62
7
100
AcDbSpline
 70
8
 71
3
 72
8
 73
4
 74
0
 40
0
 40
0
 40
0
 40
0
 40
1
 40
1
 40
1
 40
1
 10
459.572828
 20
523.594459
 30
0.0
 10
458.180523
 20
522.790611
 30
0.0
 10
457.322828
 20
521.305040
 30
0.0
 10
457.322828
 20
519.697345
 30
0.0
  0
SPLINE
  5
142
100
AcDbEntity
  8
0
 62
7
100
AcDbSpline
 70
8
 71
3
 72
8
 73
4
 74
0
 40
0
 40
0
 40
0
 40
0
 40
1
 40
1
 40
1
 40
1
 10
457.322828
 20
519.697345
 30
0.0
 10
457.322828
 20
518.089650
 30
0.0
 10
458.180523
 20
516.604078
 30
0.0
 10
459.572828
 20
515.800230
 30
0.0
  0
SPLINE
  5
143
100
AcDbEntity
  8
0
 62
7
100
AcDbSpline
 70
8
 71
3
 72
8
 73
4
 74
0
 40
0
 40
0
 40
0
 40
0
 40
1
 40
1
 40
1
 40
1
 10
459.572828
 20
515.800230
 30
0.0
 10
460.965132
 20
514.996383
 30
0.0
 10
462.680523
 20
514.996383
 30
0.0
 10
464.072828
 20
515.800230
 30
0.0
  0
SPLINE
  5
144
100
AcDbEntity
  8
0
 62
7
100
AcDbSpline
 70
8
 71
3
 72
8
 73
4
 74
0
 40
0
 40
0
 40
0
 40
0
 40
1
 40
1
 40
1
 40
1
 10
464.072828
 20
515.800230
 30
0.0
 10
465.465132
 20
516.604078
 30
0.0
 10
466.322828
 20
518.089650
 30
0.0
 10
466.322828
 20
519.697345
 30
0.0
  0
LWPOLYLINE
  5
145
100
AcDbEntity
  8
0
 62
7
100
AcDbPolyline
 90
1
 70
1
 10
845.234025
 20
261.213527
 30
0.0
  0
LWPOLYLINE
  5
146
100
AcDbEntity
  8
0
 62
7
100
AcDbPolyline
 90
1
 70
1
 10
466.322828
 20
519.697345
 30
0.0
  0
SPLINE
  5
147
100
AcDbEntity
  8
0
 62
7
100
AcDbSpline
 70
8
 71
3
 72
8
 73
4
 74
0
 40
0
 40
0
 40
0
 40
0
 40
1
 40
1
 40
1
 40
1
 10
841.832475
 20
517.755715
 30
0.0
 10
841.832475
 20
519.363410
 30
0.0
 10
840.974780
 20
520.848981
 30
0.0
 10
839.582475
 20
521.652829
 30
0.0
  0
SPLINE
  5
148
100
AcDbEntity
  8
0
 62
7
100
AcDbSpline
 70
8
 71
3
 72
8
 73
4
 74
0
 40
0
 40
0
 40
0
 40
0
 40
1
 40
1
 40
1
 40
1
 10
839.582475
 20
521.652829
 30
0.0
 10
838.190170
 20
522.456677
 30
0.0
 10
836.474780
 20
522.456677
 30
0.0
 10
835.082475
 20
521.652829
 30
0.0
  0
SPLINE
  5
149
100
AcDbEntity
  8
0
 62
7
100
AcDbSpline
 70
8
 71
3
 72
8
 73
4
 74
0
 40
0
 40
0
 40
0
 40
0
 40
1
 40
1
 40
1
 40
1
 10
835.082475
 20
521.652829
 30
0.0
 10
833.690170
 20
520.848981
 30
0.0
 10
832.832475
 20
519.363410
 30
0.0
 10
832.832475
 20
517.755715
 30
0.0
  0
SPLINE
  5
14a
100
AcDbEntity
  8
0
 62
7
100
AcDbSpline
 70
8
 71
3
 72
8
 73
4
 74
0
 40
0
 40
0
 40
0
 40
0
 40
1
 40
1
 40
1
 40
1
 10
832.832475
 20
517.755715
 30
0.0
 10
832.832475
 20
516.148020
 30
0.0
 10
833.690170
 20
514.662448
 30
0.0
 10
835.082475
 20
513.858600
 30
0.0
  0
SPLINE
  5
14b
100
AcDbEntity
  8
0
 62
7
100
AcDbSpline
 70
8
 71
3
 72
8
 73
4
 74
0
 40
0
 40
0
 40
0
 40
0
 40
1
 40
1
 40
1
 40
1
 10
835.082475
 20
513.858600
 30
0.0
 10
836.474780
 20
513.054753
 30
0.0
 10
838.190170
 20
513.054753
 30
0.0
 10
839.582475
 20
513.858600
 30
0.0
  0
SPLINE
  5
14c
100
AcDbEntity
  8
0
 62
7
100
AcDbSpline
 70
8
 71
3
 72
8
 73
4
 74
0
 40
0
 40
0
 40
0
 40
0
 40
1
 40
1
 40
1
 40
1
 10
839.582475
 20
513.858600
 30
0.0
 10
840.974780
 20
514.662448
 30
0.0
 10
841.832475
 20
516.148020
 30
0.0
 10
841.832475
 20
517.755715
 30
0.0
  0
LWPOLYLINE
  5
14d
100
AcDbEntity
  8
0
 62
7
100
AcDbPolyline
 90
2
 70
0
 10
851.505675
 20
510.626575
 30
0.0
 10
823.159200
 20
510.626575
 30
0.0
  0
LWPOLYLINE
  5
14e
100
AcDbEntity
  8
0
 62
7
100
AcDbPolyline
 90
1
 70
1
 10
841.832475
 20
517.755715
 30
0.0
  0
LWPOLYLINE
  5
14f
100
AcDbEntity
  8
0
 62
7
100
AcDbPolyline
 90
4
 70
1
 10
447.568695
 20
795.678550
 30
0.0
 10
475.915155
 20
795.678550
 30
0.0
 10
475.915155
 20
781.420277
 30
0.0
 10
447.568695
 20
781.420277
 30
0.0
  0
SPLINE
  5
150
100
AcDbEntity
  8
0
 62
7
100
AcDbSpline
 70
8
 71
3
 72
8
 73
4
 74
0
 40
0
 40
0
 40
0
 40
0
 40
1
 40
1
 40
1
 40
1
 10
466.241925
 20
774.291145
 30
0.0
 10
466.241925
 20
775.898840
 30
0.0
 10
465.384230
 20
777.384411
 30
0.0
 10
463.991925
 20
778.188259
 30
0.0
  0
SPLINE
  5
151
100
AcDbEntity
  8
0
 62
7
100
AcDbSpline
 70
8
 71
3
 72
8
 73
4
 74
0
 40
0
 40
0
 40
0
 40
0
 40
1
 40
1
 40
1
 40
1
 10
463.991925
 20
778.188259
 30
0.0
 10
462.599620
 20
778.992107
 30
0.0
 10
460.884230
 20
778.992107
 30
0.0
 10
459.491925
 20
778.188259
 30
0.0
  0
SPLINE
  5
152
100
AcDbEntity
  8
0
 62
7
100
AcDbSpline
 70
8
 71
3
 72
8
 73
4
 74
0
 40
0
 40
0
 40
0
 40
0
 40
1
 40
1
 40
1
 40
1
 10
459.491925
 20
778.188259
 30
0.0
 10
458.099620
 20
777.384411
 30
0.0
 10
457.241925
 20
775.898840
 30
0.0
 10
457.241925
 20
774.291145
 30
0.0
  0
SPLINE
  5
153
100
AcDbEntity
  8
0
 62
7
100
AcDbSpline
 70
8
 71
3
 72
8
 73
4
 74
0
 40
0
 40
0
 40
0
 40
0
 40
1
 40
1
 40
1
 40
1
 10
457.241925
 20
774.291145
 30
0.0
 10
457.241925
 20
772.683450
 30
0.0
 10
458.099620
 20
771.197878
 30
0.0
 10
459.491925
 20
770.394030
 30
0.0
  0
SPLINE
  5
154
100
AcDbEntity
  8
0
 62
7
100
AcDbSpline
 70
8
 71
3
 72
8
 73
4
 74
0
 40
0
 40
0
 40
0
 40
0
 40
1
 40
1
 40
1
 40
1
 10
459.491925
 20
770.394030
 30
0.0
 10
460.884230
 20
769.590183
 30
0.0
 10
462.599620
 20
769.590183
 30
0.0
 10
463.991925
 20
770.394030
 30
0.0
  0
SPLINE
  5
155
100
AcDbEntity
  8
0
 62
7
100
AcDbSpline
 70
8
 71
3
 72
8
 73
4
 74
0
 40
0
 40
0
 40
0
 40
0
 40
1
 40
1
 40
1
 40
1
 10
463.991925
 20
770.394030
 30
0.0
 10
465.384230
 20
771.197878
 30
0.0
 10
466.241925
 20
772.683450
 30
0.0
 10
466.241925
 20
774.291145
 30
0.0
  0
LWPOLYLINE
  5
156
100
AcDbEntity
  8
0
 62
7
100
AcDbPolyline
 90
2
 70
0
 10
475.915155
 20
767.162012
 30
0.0
 10
447.568695
 20
767.162012
 30
0.0
  0
LWPOLYLINE
  5
157
100
AcDbEntity
  8
0
 62
7
100
AcDbPolyline
 90
1
 70
1
 10
466.241925
 20
774.291145
 30
0.0
  0
LWPOLYLINE
  5
158
100
AcDbEntity
  8
0
 62
7
100
AcDbPolyline
 90
4
 70
1
 10
823.159200
 20
795.678550
 30
0.0
 10
851.505675
 20
795.678550
 30
0.0
 10
851.505675
 20
781.420277
 30
0.0
 10
823.159200
 20
781.420277
 30
0.0
  0
SPLINE
  5
159
100
AcDbEntity
  8
0
 62
7
100
AcDbSpline
 70
8
 71
3
 72
8
 73
4
 74
0
 40
0
 40
0
 40
0
 40
0
 40
1
 40
1
 40
1
 40
1
 10
841.832475
 20
774.291145
 30
0.0
 10
841.832475
 20
775.898840
 30
0.0
 10
840.974780
 20
777.384411
 30
0.0
 10
839.582475
 20
778.188259
 30
0.0
  0
SPLINE
  5
15a
100
AcDbEntity
  8
0
 62
7
100
AcDbSpline
 70
8
 71
3
 72
8
 73
4
 74
0
 40
0
 40
0
 40
0
 40
0
 40
1
 40
1
 40
1
 40
1
 10
839.582475
 20
778.188259
 30
0.0
 10
838.190170
 20
778.992107
 30
0.0
 10
836.474780
 20
778.992107
 30
0.0
 10
835.082475
 20
778.188259
 30
0.0
  0
SPLINE
  5
15b
100
AcDbEntity
  8
0
 62
7
100
AcDbSpline
 70
8
 71
3
 72
8
 73
4
 74
0
 40
0
 40
0
 40
0
 40
0
 40
1
 40
1
 40
1
 40
1
 10
835.082475
 20
778.188259
 30
0.0
 10
833.690170
 20
777.384411
 30
0.0
 10
832.832475
 20
775.898840
 30
0.0
 10
832.832475
 20
774.291145
 30
0.0
  0
SPLINE
  5
15c
100
AcDbEntity
  8
0
 62
7
100
AcDbSpline
 70
8
 71
3
 72
8
 73
4
 74
0
 40
0
 40
0
 40
0
 40
0
 40
1
 40
1
 40
1
 40
1
 10
832.832475
 20
774.291145
 30
0.0
 10
832.832475
 20
772.683450
 30
0.0
 10
833.690170
 20
771.197878
 30
0.0
 10
835.082475
 20
770.394030
 30
0.0
  0
SPLINE
  5
15d
100
AcDbEntity
  8
0
 62
7
100
AcDbSpline
 70
8
 71
3
 72
8
 73
4
 74
0
 40
0
 40
0
 40
0
 40
0
 40
1
 40
1
 40
1
 40
1
 10
835.082475
 20
770.394030
 30
0.0
 10
836.474780
 20
769.590183
 30
0.0
 10
838.190170
 20
769.590183
 30
0.0
 10
839.582475
 20
770.394030
 30
0.0
  0
SPLINE
  5
15e
100
AcDbEntity
  8
0
 62
7
100
AcDbSpline
 70
8
 71
3
 72
8
 73
4
 74
0
 40
0
 40
0
 40
0
 40
0
 40
1
 40
1
 40
1
 40
1
 10
839.582475
 20
770.394030
 30
0.0
 10
840.974780
 20
771.197878
 30
0.0
 10
841.832475
 20
772.683450
 30
0.0
 10
841.832475
 20
774.291145
 30
0.0
  0
LWPOLYLINE
  5
15f
100
AcDbEntity
  8
0
 62
7
100
AcDbPolyline
 90
2
 70
0
 10
851.505675
 20
767.162012
 30
0.0
 10
823.159200
 20
767.162012
 30
0.0
  0
LWPOLYLINE
  5
160
100
AcDbEntity
  8
0
 62
7
100
AcDbPolyline
 90
1
 70
1
 10
841.832475
 20
774.291145
 30
0.0
  0
LWPOLYLINE
  5
161
100
AcDbEntity
  8
0
 62
7
100
AcDbPolyline
 90
4
 70
1
 10
158.904960
 20
325.042352
 30
0.0
 10
148.870313
 20
325.042352
 30
0.0
 10
148.870313
 20
353.388752
 30
0.0
 10
158.904960
 20
353.388752
 30
0.0
  0
SPLINE
  5
162
100
AcDbEntity
  8
0
 62
7
100
AcDbSpline
 70
8
 71
3
 72
8
 73
4
 74
0
 40
0
 40
0
 40
0
 40
0
 40
1
 40
1
 40
1
 40
1
 10
545.448682
 20
338.945140
 30
0.0
 10
545.448682
 20
340.552835
 30
0.0
 10
544.590987
 20
342.038406
 30
0.0
 10
543.198682
 20
342.842254
 30
0.0
  0
SPLINE
  5
163
100
AcDbEntity
  8
0
 62
7
100
AcDbSpline
 70
8
 71
3
 72
8
 73
4
 74
0
 40
0
 40
0
 40
0
 40
0
 40
1
 40
1
 40
1
 40
1
 10
543.198682
 20
342.842254
 30
0.0
 10
541.806378
 20
343.646102
 30
0.0
 10
540.090987
 20
343.646102
 30
0.0
 10
538.698682
 20
342.842254
 30
0.0
  0
SPLINE
  5
164
100
AcDbEntity
  8
0
 62
7
100
AcDbSpline
 70
8
 71
3
 72
8
 73
4
 74
0
 40
0
 40
0
 40
0
 40
0
 40
1
 40
1
 40
1
 40
1
 10
538.698682
 20
342.842254
 30
0.0
 10
537.306378
 20
342.038406
 30
0.0
 10
536.448682
 20
340.552835
 30
0.0
 10
536.448682
 20
338.945140
 30
0.0
  0
SPLINE
  5
165
100
AcDbEntity
  8
0
 62
7
100
AcDbSpline
 70
8
 71
3
 72
8
 73
4
 74
0
 40
0
 40
0
 40
0
 40
0
 40
1
 40
1
 40
1
 40
1
 10
536.448682
 20
338.945140
 30
0.0
 10
536.448682
 20
337.337445
 30
0.0
 10
537.306378
 20
335.851873
 30
0.0
 10
538.698682
 20
335.048025
 30
0.0
  0
SPLINE
  5
166
100
AcDbEntity
  8
0
 62
7
100
AcDbSpline
 70
8
 71
3
 72
8
 73
4
 74
0
 40
0
 40
0
 40
0
 40
0
 40
1
 40
1
 40
1
 40
1
 10
538.698682
 20
335.048025
 30
0.0
 10
540.090987
 20
334.244178
 30
0.0
 10
541.806378
 20
334.244178
 30
0.0
 10
543.198682
 20
335.048025
 30
0.0
  0
SPLINE
  5
167
100
AcDbEntity
  8
0
 62
7
100
AcDbSpline
 70
8
 71
3
 72
8
 73
4
 74
0
 40
0
 40
0
 40
0
 40
0
 40
1
 40
1
 40
1
 40
1
 10
543.198682
 20
335.048025
 30
0.0
 10
544.590987
 20
335.851873
 30
0.0
 10
545.448682
 20
337.337445
 30
0.0
 10
545.448682
 20
338.945140
 30
0.0
  0
LWPOLYLINE
  5
168
100
AcDbEntity
  8
0
 62
7
100
AcDbPolyline
 90
2
 70
1
 10
546.044257
 20
325.042352
 30
0.0
 10
546.044257
 20
353.388752
 30
0.0
  0
LWPOLYLINE
  5
169
100
AcDbEntity
  8
0
 62
7
100
AcDbPolyline
 90
1
 70
1
 10
545.448682
 20
338.945140
 30
0.0
  0
LWPOLYLINE
  5
16a
100
AcDbEntity
  8
0
 62
7
100
AcDbPolyline
 90
2
 70
0
 10
935.071050
 20
353.388752
 30
0.0
 10
935.071050
 20
325.042352
 30
0.0
  0
LWPOLYLINE
  5
16b
100
AcDbEntity
  8
0
 62
7
100
AcDbPolyline
 90
2
 70
0
 10
921.634800
 20
325.042352
 30
0.0
 10
921.634800
 20
353.388752
 30
0.0
  0
LWPOLYLINE
  5
16c
100
AcDbEntity
  8
0
 62
7
100
AcDbPolyline
 90
2
 70
0
 10
935.071050
 20
325.042352
 30
0.0
 10
921.634800
 20
325.042352
 30
0.0
  0
LWPOLYLINE
  5
16d
100
AcDbEntity
  8
0
 62
7
100
AcDbPolyline
 90
2
 70
0
 10
921.634800
 20
353.388752
 30
0.0
 10
935.071050
 20
353.388752
 30
0.0
  0
SPLINE
  5
16e
100
AcDbEntity
  8
0
 62
7
100
AcDbSpline
 70
8
 71
3
 72
8
 73
4
 74
0
 40
0
 40
0
 40
0
 40
0
 40
1
 40
1
 40
1
 40
1
 10
919.416675
 20
339.215552
 30
0.0
 10
919.416675
 20
340.823247
 30
0.0
 10
918.558980
 20
342.308819
 30
0.0
 10
917.166675
 20
343.112667
 30
0.0
  0
SPLINE
  5
16f
100
AcDbEntity
  8
0
 62
7
100
AcDbSpline
 70
8
 71
3
 72
8
 73
4
 74
0
 40
0
 40
0
 40
0
 40
0
 40
1
 40
1
 40
1
 40
1
 10
917.166675
 20
343.112667
 30
0.0
 10
915.774370
 20
343.916514
 30
0.0
 10
914.058980
 20
343.916514
 30
0.0
 10
912.666675
 20
343.112667
 30
0.0
  0
SPLINE
  5
170
100
AcDbEntity
  8
0
 62
7
100
AcDbSpline
 70
8
 71
3
 72
8
 73
4
 74
0
 40
0
 40
0
 40
0
 40
0
 40
1
 40
1
 40
1
 40
1
 10
912.666675
 20
343.112667
 30
0.0
 10
911.274370
 20
342.308819
 30
0.0
 10
910.416675
 20
340.823247
 30
0.0
 10
910.416675
 20
339.215552
 30
0.0
  0
SPLINE
  5
171
100
AcDbEntity
  8
0
 62
7
100
AcDbSpline
 70
8
 71
3
 72
8
 73
4
 74
0
 40
0
 40
0
 40
0
 40
0
 40
1
 40
1
 40
1
 40
1
 10
910.416675
 20
339.215552
 30
0.0
 10
910.416675
 20
337.607857
 30
0.0
 10
911.274370
 20
336.122286
 30
0.0
 10
912.666675
 20
335.318438
 30
0.0
  0
SPLINE
  5
172
100
AcDbEntity
  8
0
 62
7
100
AcDbSpline
 70
8
 71
3
 72
8
 73
4
 74
0
 40
0
 40
0
 40
0
 40
0
 40
1
 40
1
 40
1
 40
1
 10
912.666675
 20
335.318438
 30
0.0
 10
914.058980
 20
334.514590
 30
0.0
 10
915.774370
 20
334.514590
 30
0.0
 10
917.166675
 20
335.318438
 30
0.0
  0
SPLINE
  5
173
100
AcDbEntity
  8
0
 62
7
100
AcDbSpline
 70
8
 71
3
 72
8
 73
4
 74
0
 40
0
 40
0
 40
0
 40
0
 40
1
 40
1
 40
1
 40
1
 10
917.166675
 20
335.318438
 30
0.0
 10
918.558980
 20
336.122286
 30
0.0
 10
919.416675
 20
337.607857
 30
0.0
 10
919.416675
 20
339.215552
 30
0.0
  0
LWPOLYLINE
  5
174
100
AcDbEntity
  8
0
 62
7
100
AcDbPolyline
 90
2
 70
0
 10
921.634800
 20
353.388752
 30
0.0
 10
921.634800
 20
325.042352
 30
0.0
  0
LWPOLYLINE
  5
175
100
AcDbEntity
  8
0
 62
7
100
AcDbPolyline
 90
1
 70
1
 10
919.416675
 20
339.215552
 30
0.0
  0
LWPOLYLINE
  5
176
100
AcDbEntity
  8
0
 62
7
100
AcDbPolyline
 90
2
 70
0
 10
148.870313
 20
609.924220
 30
0.0
 10
158.904960
 20
609.924220
 30
0.0
  0
LWPOLYLINE
  5
177
100
AcDbEntity
  8
0
 62
7
100
AcDbPolyline
 90
2
 70
0
 10
158.904960
 20
581.577760
 30
0.0
 10
148.870313
 20
581.577760
 30
0.0
  0
LWPOLYLINE
  5
178
100
AcDbEntity
  8
0
 62
7
100
AcDbPolyline
 90
2
 70
1
 10
158.904960
 20
609.924220
 30
0.0
 10
158.904960
 20
581.577760
 30
0.0
  0
SPLINE
  5
179
100
AcDbEntity
  8
0
 62
7
100
AcDbSpline
 70
8
 71
3
 72
8
 73
4
 74
0
 40
0
 40
0
 40
0
 40
0
 40
1
 40
1
 40
1
 40
1
 10
168.422287
 20
595.750990
 30
0.0
 10
168.422287
 20
597.358685
 30
0.0
 10
167.564592
 20
598.844256
 30
0.0
 10
166.172287
 20
599.648104
 30
0.0
  0
SPLINE
  5
17a
100
AcDbEntity
  8
0
 62
7
100
AcDbSpline
 70
8
 71
3
 72
8
 73
4
 74
0
 40
0
 40
0
 40
0
 40
0
 40
1
 40
1
 40
1
 40
1
 10
166.172287
 20
599.648104
 30
0.0
 10
164.779983
 20
600.451952
 30
0.0
 10
163.064592
 20
600.451952
 30
0.0
 10
161.672287
 20
599.648104
 30
0.0
  0
SPLINE
  5
17b
100
AcDbEntity
  8
0
 62
7
100
AcDbSpline
 70
8
 71
3
 72
8
 73
4
 74
0
 40
0
 40
0
 40
0
 40
0
 40
1
 40
1
 40
1
 40
1
 10
161.672287
 20
599.648104
 30
0.0
 10
160.279983
 20
598.844256
 30
0.0
 10
159.422287
 20
597.358685
 30
0.0
 10
159.422287
 20
595.750990
 30
0.0
  0
SPLINE
  5
17c
100
AcDbEntity
  8
0
 62
7
100
AcDbSpline
 70
8
 71
3
 72
8
 73
4
 74
0
 40
0
 40
0
 40
0
 40
0
 40
1
 40
1
 40
1
 40
1
 10
159.422287
 20
595.750990
 30
0.0
 10
159.422287
 20
594.143295
 30
0.0
 10
160.279983
 20
592.657723
 30
0.0
 10
161.672287
 20
591.853875
 30
0.0
  0
SPLINE
  5
17d
100
AcDbEntity
  8
0
 62
7
100
AcDbSpline
 70
8
 71
3
 72
8
 73
4
 74
0
 40
0
 40
0
 40
0
 40
0
 40
1
 40
1
 40
1
 40
1
 10
161.672287
 20
591.853875
 30
0.0
 10
163.064592
 20
591.050028
 30
0.0
 10
164.779983
 20
591.050028
 30
0.0
 10
166.172287
 20
591.853875
 30
0.0
  0
SPLINE
  5
17e
100
AcDbEntity
  8
0
 62
7
100
AcDbSpline
 70
8
 71
3
 72
8
 73
4
 74
0
 40
0
 40
0
 40
0
 40
0
 40
1
 40
1
 40
1
 40
1
 10
166.172287
 20
591.853875
 30
0.0
 10
167.564592
 20
592.657723
 30
0.0
 10
168.422287
 20
594.143295
 30
0.0
 10
168.422287
 20
595.750990
 30
0.0
  0
LWPOLYLINE
  5
17f
100
AcDbEntity
  8
0
 62
7
100
AcDbPolyline
 90
2
 70
0
 10
148.870313
 20
581.577760
 30
0.0
 10
148.870313
 20
609.924220
 30
0.0
  0
LWPOLYLINE
  5
180
100
AcDbEntity
  8
0
 62
7
100
AcDbPolyline
 90
1
 70
1
 10
168.422287
 20
595.750990
 30
0.0
  0
LWPOLYLINE
  5
181
100
AcDbEntity
  8
0
 62
7
100
AcDbPolyline
 90
2
 70
0
 10
546.044257
 20
581.577760
 30
0.0
 10
546.044257
 20
609.924220
 30
0.0
  0
LWPOLYLINE
  5
182
100
AcDbEntity
  8
0
 62
7
100
AcDbPolyline
 90
2
 70
1
 10
532.608082
 20
609.924220
 30
0.0
 10
532.608082
 20
581.577760
 30
0.0
  0
SPLINE
  5
183
100
AcDbEntity
  8
0
 62
7
100
AcDbSpline
 70
8
 71
3
 72
8
 73
4
 74
0
 40
0
 40
0
 40
0
 40
0
 40
1
 40
1
 40
1
 40
1
 10
543.826208
 20
595.750990
 30
0.0
 10
543.826208
 20
597.358685
 30
0.0
 10
542.968512
 20
598.844256
 30
0.0
 10
541.576208
 20
599.648104
 30
0.0
  0
SPLINE
  5
184
100
AcDbEntity
  8
0
 62
7
100
AcDbSpline
 70
8
 71
3
 72
8
 73
4
 74
0
 40
0
 40
0
 40
0
 40
0
 40
1
 40
1
 40
1
 40
1
 10
541.576208
 20
599.648104
 30
0.0
 10
540.183903
 20
600.451952
 30
0.0
 10
538.468512
 20
600.451952
 30
0.0
 10
537.076208
 20
599.648104
 30
0.0
  0
SPLINE
  5
185
100
AcDbEntity
  8
0
 62
7
100
AcDbSpline
 70
8
 71
3
 72
8
 73
4
 74
0
 40
0
 40
0
 40
0
 40
0
 40
1
 40
1
 40
1
 40
1
 10
537.076208
 20
599.648104
 30
0.0
 10
535.683903
 20
598.844256
 30
0.0
 10
534.826208
 20
597.358685
 30
0.0
 10
534.826208
 20
595.750990
 30
0.0
  0
SPLINE
  5
186
100
AcDbEntity
  8
0
 62
7
100
AcDbSpline
 70
8
 71
3
 72
8
 73
4
 74
0
 40
0
 40
0
 40
0
 40
0
 40
1
 40
1
 40
1
 40
1
 10
534.826208
 20
595.750990
 30
0.0
 10
534.826208
 20
594.143295
 30
0.0
 10
535.683903
 20
592.657723
 30
0.0
 10
537.076208
 20
591.853875
 30
0.0
  0
SPLINE
  5
187
100
AcDbEntity
  8
0
 62
7
100
AcDbSpline
 70
8
 71
3
 72
8
 73
4
 74
0
 40
0
 40
0
 40
0
 40
0
 40
1
 40
1
 40
1
 40
1
 10
537.076208
 20
591.853875
 30
0.0
 10
538.468512
 20
591.050028
 30
0.0
 10
540.183903
 20
591.050028
 30
0.0
 10
541.576208
 20
591.853875
 30
0.0
  0
SPLINE
  5
188
100
AcDbEntity
  8
0
 62
7
100
AcDbSpline
 70
8
 71
3
 72
8
 73
4
 74
0
 40
0
 40
0
 40
0
 40
0
 40
1
 40
1
 40
1
 40
1
 10
541.576208
 20
591.853875
 30
0.0
 10
542.968512
 20
592.657723
 30
0.0
 10
543.826208
 20
594.143295
 30
0.0
 10
543.826208
 20
595.750990
 30
0.0
  0
LWPOLYLINE
  5
189
100
AcDbEntity
  8
0
 62
7
100
AcDbPolyline
 90
2
 70
0
 10
546.044257
 20
609.924220
 30
0.0
 10
546.044257
 20
581.577760
 30
0.0
  0
LWPOLYLINE
  5
18a
100
AcDbEntity
  8
0
 62
7
100
AcDbPolyline
 90
1
 70
1
 10
543.826208
 20
595.750990
 30
0.0
  0
LWPOLYLINE
  5
18b
100
AcDbEntity
  8
0
 62
7
100
AcDbPolyline
 90
2
 70
0
 10
935.071050
 20
609.924220
 30
0.0
 10
935.071050
 20
581.577760
 30
0.0
  0
LWPOLYLINE
  5
18c
100
AcDbEntity
  8
0
 62
7
100
AcDbPolyline
 90
2
 70
0
 10
921.634800
 20
581.577760
 30
0.0
 10
921.634800
 20
609.924220
 30
0.0
  0
LWPOLYLINE
  5
18d
100
AcDbEntity
  8
0
 62
7
100
AcDbPolyline
 90
2
 70
0
 10
935.071050
 20
581.577760
 30
0.0
 10
921.634800
 20
581.577760
 30
0.0
  0
LWPOLYLINE
  5
18e
100
AcDbEntity
  8
0
 62
7
100
AcDbPolyline
 90
2
 70
0
 10
921.634800
 20
609.924220
 30
0.0
 10
935.071050
 20
609.924220
 30
0.0
  0
LWPOLYLINE
  5
18f
100
AcDbEntity
  8
0
 62
7
100
AcDbPolyline
 90
2
 70
1
 10
908.198625
 20
609.924220
 30
0.0
 10
908.198625
 20
581.577760
 30
0.0
  0
SPLINE
  5
190
100
AcDbEntity
  8
0
 62
7
100
AcDbSpline
 70
8
 71
3
 72
8
 73
4
 74
0
 40
0
 40
0
 40
0
 40
0
 40
1
 40
1
 40
1
 40
1
 10
919.416675
 20
595.750990
 30
0.0
 10
919.416675
 20
597.358685
 30
0.0
 10
918.558980
 20
598.844256
 30
0.0
 10
917.166675
 20
599.648104
 30
0.0
  0
SPLINE
  5
191
100
AcDbEntity
  8
0
 62
7
100
AcDbSpline
 70
8
 71
3
 72
8
 73
4
 74
0
 40
0
 40
0
 40
0
 40
0
 40
1
 40
1
 40
1
 40
1
 10
917.166675
 20
599.648104
 30
0.0
 10
915.774370
 20
600.451952
 30
0.0
 10
914.058980
 20
600.451952
 30
0.0
 10
912.666675
 20
599.648104
 30
0.0
  0
SPLINE
  5
192
100
AcDbEntity
  8
0
 62
7
100
AcDbSpline
 70
8
 71
3
 72
8
 73
4
 74
0
 40
0
 40
0
 40
0
 40
0
 40
1
 40
1
 40
1
 40
1
 10
912.666675
 20
599.648104
 30
0.0
 10
911.274370
 20
598.844256
 30
0.0
 10
910.416675
 20
597.358685
 30
0.0
 10
910.416675
 20
595.750990
 30
0.0
  0
SPLINE
  5
193
100
AcDbEntity
  8
0
 62
7
100
AcDbSpline
 70
8
 71
3
 72
8
 73
4
 74
0
 40
0
 40
0
 40
0
 40
0
 40
1
 40
1
 40
1
 40
1
 10
910.416675
 20
595.750990
 30
0.0
 10
910.416675
 20
594.143295
 30
0.0
 10
911.274370
 20
592.657723
 30
0.0
 10
912.666675
 20
591.853875
 30
0.0
  0
SPLINE
  5
194
100
AcDbEntity
  8
0
 62
7
100
AcDbSpline
 70
8
 71
3
 72
8
 73
4
 74
0
 40
0
 40
0
 40
0
 40
0
 40
1
 40
1
 40
1
 40
1
 10
912.666675
 20
591.853875
 30
0.0
 10
914.058980
 20
591.050028
 30
0.0
 10
915.774370
 20
591.050028
 30
0.0
 10
917.166675
 20
591.853875
 30
0.0
  0
SPLINE
  5
195
100
AcDbEntity
  8
0
 62
7
100
AcDbSpline
 70
8
 71
3
 72
8
 73
4
 74
0
 40
0
 40
0
 40
0
 40
0
 40
1
 40
1
 40
1
 40
1
 10
917.166675
 20
591.853875
 30
0.0
 10
918.558980
 20
592.657723
 30
0.0
 10
919.416675
 20
594.143295
 30
0.0
 10
919.416675
 20
595.750990
 30
0.0
  0
LWPOLYLINE
  5
196
100
AcDbEntity
  8
0
 62
7
100
AcDbPolyline
 90
2
 70
0
 10
921.634800
 20
609.924220
 30
0.0
 10
921.634800
 20
581.577760
 30
0.0
  0
SPLINE
  5
197
100
AcDbEntity
  8
0
 62
7
100
AcDbSpline
 70
8
 71
3
 72
8
 73
4
 74
0
 40
0
 40
0
 40
0
 40
0
 40
1
 40
1
 40
1
 40
1
 10
955.405725
 20
517.755715
 30
0.0
 10
955.410809
 20
520.290898
 30
0.0
 10
954.061224
 20
522.635683
 30
0.0
 10
951.866534
 20
523.904744
 30
0.0
  0
SPLINE
  5
198
100
AcDbEntity
  8
0
 62
7
100
AcDbSpline
 70
8
 71
3
 72
8
 73
4
 74
0
 40
0
 40
0
 40
0
 40
0
 40
1
 40
1
 40
1
 40
1
 10
951.866534
 20
523.904744
 30
0.0
 10
949.671844
 20
525.173806
 30
0.0
 10
946.966406
 20
525.173806
 30
0.0
 10
944.771716
 20
523.904744
 30
0.0
  0
SPLINE
  5
199
100
AcDbEntity
  8
0
 62
7
100
AcDbSpline
 70
8
 71
3
 72
8
 73
4
 74
0
 40
0
 40
0
 40
0
 40
0
 40
1
 40
1
 40
1
 40
1
 10
944.771716
 20
523.904744
 30
0.0
 10
942.577026
 20
522.635683
 30
0.0
 10
941.227441
 20
520.290898
 30
0.0
 10
941.232525
 20
517.755715
 30
0.0
  0
SPLINE
  5
19a
100
AcDbEntity
  8
0
 62
7
100
AcDbSpline
 70
8
 71
3
 72
8
 73
4
 74
0
 40
0
 40
0
 40
0
 40
0
 40
1
 40
1
 40
1
 40
1
 10
941.232525
 20
517.755715
 30
0.0
 10
941.227441
 20
515.220531
 30
0.0
 10
942.577026
 20
512.875747
 30
0.0
 10
944.771716
 20
511.606685
 30
0.0
  0
SPLINE
  5
19b
100
AcDbEntity
  8
0
 62
7
100
AcDbSpline
 70
8
 71
3
 72
8
 73
4
 74
0
 40
0
 40
0
 40
0
 40
0
 40
1
 40
1
 40
1
 40
1
 10
944.771716
 20
511.606685
 30
0.0
 10
946.966406
 20
510.337624
 30
0.0
 10
949.671844
 20
510.337624
 30
0.0
 10
951.866534
 20
511.606685
 30
0.0
  0
SPLINE
  5
19c
100
AcDbEntity
  8
0
 62
7
100
AcDbSpline
 70
8
 71
3
 72
8
 73
4
 74
0
 40
0
 40
0
 40
0
 40
0
 40
1
 40
1
 40
1
 40
1
 10
951.866534
 20
511.606685
 30
0.0
 10
954.061224
 20
512.875747
 30
0.0
 10
955.410809
 20
515.220531
 30
0.0
 10
955.405725
 20
517.755715
 30
0.0
  0
LWPOLYLINE
  5
19d
100
AcDbEntity
  8
0
 62
7
100
AcDbPolyline
 90
1
 70
1
 10
919.416675
 20
595.750990
 30
0.0
  0
LWPOLYLINE
  5
19e
100
AcDbEntity
  8
0
 62
7
100
AcDbPolyline
 90
1
 70
1
 10
955.405725
 20
517.755715
 30
0.0
  0
LWPOLYLINE
  5
19f
100
AcDbEntity
  8
0
 62
7
100
AcDbPolyline
 90
2
 70
0
 10
170.453737
 20
268.349402
 30
0.0
 10
170.453737
 20
514.028155
 30
0.0
  0
LWPOLYLINE
  5
1a0
100
AcDbEntity
  8
0
 62
7
100
AcDbPolyline
 90
2
 70
0
 10
170.453737
 20
524.884847
 30
0.0
 10
170.453737
 20
767.162012
 30
0.0
  0
LWPOLYLINE
  5
1a1
100
AcDbEntity
  8
0
 62
7
100
AcDbPolyline
 90
2
 70
0
 10
908.198625
 20
353.388752
 30
0.0
 10
908.198625
 20
325.042352
 30
0.0
  0
LWPOLYLINE
  5
1a2
100
AcDbEntity
  8
0
 62
7
100
AcDbPolyline
 90
4
 70
1
 10
0.375000
 20
863.625000
 30
0.0
 10
981.162375
 20
863.625000
 30
0.0
 10
981.162375
 20
103.939885
 30
0.0
 10
0.375000
 20
103.939885
 30
0.0
  0
ENDSEC
  0
SECTION
  2
OBJECTS
  0
DICTIONARY
  5
C
330
0
100
AcDbDictionary
  3
ACAD_GROUP
350
D
  3
ACAD_MLINESTYLE
350
17
  0
DICTIONARY
  5
D
330
C
100
AcDbDictionary
  0
DICTIONARY
  5
1A
330
C
100
AcDbDictionary
  0
DICTIONARY
  5
17
330
C
100
AcDbDictionary
  3
STANDARD
350
18
  0
DICTIONARY
  5
19
330
C
100
AcDbDictionary
  0
ENDSEC
  0
EOF
